<?xml version="1.0" encoding="UTF-8" standalone="no"?>
<!DOCTYPE svg PUBLIC "-//W3C//DTD SVG 1.1//EN"
 "http://www.w3.org/Graphics/SVG/1.1/DTD/svg11.dtd">
<!-- Generated by graphviz version 2.43.0 (0)
 -->
<!-- Title: pipeline_dag_20210617_214550 Pages: 1 -->
<svg width="1321pt" height="694pt"
 viewBox="0.00 0.00 1321.00 693.80" xmlns="http://www.w3.org/2000/svg" xmlns:xlink="http://www.w3.org/1999/xlink">
<g id="graph0" class="graph" transform="scale(1 1) rotate(0) translate(4 689.8)">
<title>pipeline_dag_20210617_214550</title>
<polygon fill="white" stroke="transparent" points="-4,4 -4,-689.8 1317,-689.8 1317,4 -4,4"/>
<!-- p0 -->
<g id="node1" class="node">
<title>p0</title>
<ellipse fill="black" stroke="black" cx="492.6" cy="-667.2" rx="3.6" ry="3.6"/>
<text text-anchor="middle" x="409" y="-674.6" font-family="Times,serif" font-size="14.00">Channel.fromFilePairs</text>
</g>
<!-- p1 -->
<g id="node2" class="node">
<title>p1</title>
<ellipse fill="none" stroke="black" cx="492.6" cy="-594.6" rx="3.5" ry="3.5"/>
<text text-anchor="middle" x="460.1" y="-601.9" font-family="Times,serif" font-size="14.00">ifEmpty</text>
</g>
<!-- p0&#45;&gt;p1 -->
<g id="edge1" class="edge">
<title>p0&#45;&gt;p1</title>
<path fill="none" stroke="black" d="M492.6,-663.52C492.6,-654.61 492.6,-625.58 492.6,-608.49"/>
<polygon fill="black" stroke="black" points="496.1,-608.28 492.6,-598.28 489.1,-608.28 496.1,-608.28"/>
</g>
<!-- p2 -->
<g id="node3" class="node">
<title>p2</title>
<ellipse fill="none" stroke="black" cx="492.6" cy="-507.6" rx="3.5" ry="3.5"/>
<text text-anchor="middle" x="475.1" y="-514.9" font-family="Times,serif" font-size="14.00">into</text>
</g>
<!-- p1&#45;&gt;p2 -->
<g id="edge2" class="edge">
<title>p1&#45;&gt;p2</title>
<path fill="none" stroke="black" d="M492.6,-590.77C492.6,-580.09 492.6,-541.79 492.6,-521.47"/>
<polygon fill="black" stroke="black" points="496.1,-521.18 492.6,-511.18 489.1,-521.18 496.1,-521.18"/>
</g>
<!-- p5 -->
<g id="node4" class="node">
<title>p5</title>
<ellipse fill="none" stroke="black" cx="428.6" cy="-420.6" rx="63.89" ry="18"/>
<text text-anchor="middle" x="428.6" y="-416.9" font-family="Times,serif" font-size="14.00">TrimGalore</text>
</g>
<!-- p2&#45;&gt;p5 -->
<g id="edge3" class="edge">
<title>p2&#45;&gt;p5</title>
<path fill="none" stroke="black" d="M490.75,-504.15C484.45,-495.77 463.28,-467.66 447.39,-446.56"/>
<polygon fill="black" stroke="black" points="449.99,-444.18 441.18,-438.3 444.39,-448.4 449.99,-444.18"/>
<text text-anchor="middle" x="514.6" y="-460.4" font-family="Times,serif" font-size="14.00">trimgalore_ch</text>
</g>
<!-- p3 -->
<g id="node5" class="node">
<title>p3</title>
<ellipse fill="none" stroke="black" cx="809.6" cy="-420.6" rx="40.89" ry="18"/>
<text text-anchor="middle" x="809.6" y="-416.9" font-family="Times,serif" font-size="14.00">Fastqc</text>
</g>
<!-- p2&#45;&gt;p3 -->
<g id="edge4" class="edge">
<title>p2&#45;&gt;p3</title>
<path fill="none" stroke="black" d="M495.74,-505.76C520.5,-499.12 685.51,-454.87 765.84,-433.33"/>
<polygon fill="black" stroke="black" points="766.91,-436.67 775.66,-430.7 765.09,-429.91 766.91,-436.67"/>
<text text-anchor="middle" x="704.1" y="-460.4" font-family="Times,serif" font-size="14.00">fastqc_ch</text>
</g>
<!-- p12 -->
<g id="node7" class="node">
<title>p12</title>
<ellipse fill="none" stroke="black" cx="399.6" cy="-333.6" rx="71.49" ry="18"/>
<text text-anchor="middle" x="399.6" y="-329.9" font-family="Times,serif" font-size="14.00">Bowtie_Price</text>
</g>
<!-- p5&#45;&gt;p12 -->
<g id="edge6" class="edge">
<title>p5&#45;&gt;p12</title>
<path fill="none" stroke="black" d="M422.73,-402.4C418.72,-390.65 413.33,-374.84 408.76,-361.44"/>
<polygon fill="black" stroke="black" points="412,-360.11 405.46,-351.78 405.38,-362.37 412,-360.11"/>
<text text-anchor="middle" x="469.1" y="-373.4" font-family="Times,serif" font-size="14.00">fastq_trimmed</text>
</g>
<!-- p18 -->
<g id="node8" class="node">
<title>p18</title>
<ellipse fill="none" stroke="black" cx="580.6" cy="-333.6" rx="91.78" ry="18"/>
<text text-anchor="middle" x="580.6" y="-329.9" font-family="Times,serif" font-size="14.00">Bowtie_RiboCode</text>
</g>
<!-- p5&#45;&gt;p18 -->
<g id="edge7" class="edge">
<title>p5&#45;&gt;p18</title>
<path fill="none" stroke="black" d="M473.22,-407.56C490.28,-401.93 509.5,-394.3 525.6,-384.6 537.17,-377.63 548.48,-368 557.8,-359.05"/>
<polygon fill="black" stroke="black" points="560.5,-361.3 565.13,-351.77 555.57,-356.33 560.5,-361.3"/>
<text text-anchor="middle" x="602.6" y="-373.4" font-family="Times,serif" font-size="14.00">fastq_trimmed2</text>
</g>
<!-- p8 -->
<g id="node9" class="node">
<title>p8</title>
<ellipse fill="black" stroke="black" cx="691.6" cy="-333.6" rx="1.8" ry="1.8"/>
</g>
<!-- p5&#45;&gt;p8 -->
<g id="edge8" class="edge">
<title>p5&#45;&gt;p8</title>
<path fill="none" stroke="black" d="M490.66,-416.49C550.64,-412.41 636.31,-403.43 663.6,-384.6 677.25,-375.18 685,-356.82 688.74,-345.16"/>
<polygon fill="black" stroke="black" points="692.12,-346.06 691.41,-335.49 685.38,-344.2 692.12,-346.06"/>
<text text-anchor="middle" x="734.6" y="-373.4" font-family="Times,serif" font-size="14.00">fastq_trimmed3</text>
</g>
<!-- p7 -->
<g id="node10" class="node">
<title>p7</title>
<ellipse fill="black" stroke="black" cx="183.6" cy="-333.6" rx="1.8" ry="1.8"/>
</g>
<!-- p5&#45;&gt;p7 -->
<g id="edge9" class="edge">
<title>p5&#45;&gt;p7</title>
<path fill="none" stroke="black" d="M365.84,-417.45C306.48,-414.14 222.96,-405.76 198.6,-384.6 187.44,-374.91 184.41,-357.26 183.68,-345.74"/>
<polygon fill="black" stroke="black" points="187.18,-345.43 183.55,-335.47 180.18,-345.52 187.18,-345.43"/>
<text text-anchor="middle" x="255.6" y="-373.4" font-family="Times,serif" font-size="14.00">fastq_trimmed4</text>
</g>
<!-- p6 -->
<g id="node11" class="node">
<title>p6</title>
<ellipse fill="black" stroke="black" cx="308.6" cy="-333.6" rx="1.8" ry="1.8"/>
</g>
<!-- p5&#45;&gt;p6 -->
<g id="edge10" class="edge">
<title>p5&#45;&gt;p6</title>
<path fill="none" stroke="black" d="M374.28,-411.01C356.85,-405.88 338.69,-397.69 325.6,-384.6 315.14,-374.14 311.11,-357.01 309.56,-345.77"/>
<polygon fill="black" stroke="black" points="313.02,-345.08 308.62,-335.44 306.04,-345.72 313.02,-345.08"/>
<text text-anchor="middle" x="367.1" y="-373.4" font-family="Times,serif" font-size="14.00">trim_report</text>
</g>
<!-- p4 -->
<g id="node6" class="node">
<title>p4</title>
<ellipse fill="black" stroke="black" cx="828.6" cy="-333.6" rx="1.8" ry="1.8"/>
</g>
<!-- p3&#45;&gt;p4 -->
<g id="edge5" class="edge">
<title>p3&#45;&gt;p4</title>
<path fill="none" stroke="black" d="M813.44,-402.4C817.22,-385.52 822.86,-360.26 826.09,-345.82"/>
<polygon fill="black" stroke="black" points="829.59,-346.21 828.36,-335.68 822.76,-344.68 829.59,-346.21"/>
<text text-anchor="middle" x="870.6" y="-373.4" font-family="Times,serif" font-size="14.00">fastqc_results</text>
</g>
<!-- p15 -->
<g id="node15" class="node">
<title>p15</title>
<ellipse fill="none" stroke="black" cx="181.6" cy="-246.6" rx="34.39" ry="18"/>
<text text-anchor="middle" x="181.6" y="-242.9" font-family="Times,serif" font-size="14.00">Price</text>
</g>
<!-- p12&#45;&gt;p15 -->
<g id="edge15" class="edge">
<title>p12&#45;&gt;p15</title>
<path fill="none" stroke="black" d="M347.52,-321.21C308.88,-312.59 261.42,-301.58 252.6,-297.6 236.14,-290.18 219.54,-278.76 206.54,-268.7"/>
<polygon fill="black" stroke="black" points="208.55,-265.83 198.55,-262.35 204.2,-271.31 208.55,-265.83"/>
<text text-anchor="middle" x="294.6" y="-286.4" font-family="Times,serif" font-size="14.00">sorted_bam</text>
</g>
<!-- p14 -->
<g id="node16" class="node">
<title>p14</title>
<ellipse fill="black" stroke="black" cx="343.6" cy="-246.6" rx="1.8" ry="1.8"/>
</g>
<!-- p12&#45;&gt;p14 -->
<g id="edge14" class="edge">
<title>p12&#45;&gt;p14</title>
<path fill="none" stroke="black" d="M364.79,-317.66C356.78,-312.51 349.26,-305.89 344.6,-297.6 337.9,-285.68 339.07,-269.5 340.95,-258.82"/>
<polygon fill="black" stroke="black" points="344.39,-259.48 343.2,-248.95 337.57,-257.93 344.39,-259.48"/>
<text text-anchor="middle" x="394.6" y="-286.4" font-family="Times,serif" font-size="14.00">bowtie_report</text>
</g>
<!-- p13 -->
<g id="node17" class="node">
<title>p13</title>
<ellipse fill="black" stroke="black" cx="466.6" cy="-246.6" rx="1.8" ry="1.8"/>
</g>
<!-- p12&#45;&gt;p13 -->
<g id="edge16" class="edge">
<title>p12&#45;&gt;p13</title>
<path fill="none" stroke="black" d="M424.92,-316.4C431.94,-311.04 439.12,-304.63 444.6,-297.6 453.78,-285.82 459.99,-269.61 463.41,-258.88"/>
<polygon fill="black" stroke="black" points="466.87,-259.54 466.27,-248.96 460.14,-257.61 466.87,-259.54"/>
<text text-anchor="middle" x="492.1" y="-286.4" font-family="Times,serif" font-size="14.00">index_bam</text>
</g>
<!-- p23 -->
<g id="node21" class="node">
<title>p23</title>
<ellipse fill="none" stroke="black" cx="527.6" cy="-246.6" rx="36.29" ry="18"/>
<text text-anchor="middle" x="527.6" y="-242.9" font-family="Times,serif" font-size="14.00">STAR</text>
</g>
<!-- p18&#45;&gt;p23 -->
<g id="edge19" class="edge">
<title>p18&#45;&gt;p23</title>
<path fill="none" stroke="black" d="M569.87,-315.4C562.18,-303.06 551.7,-286.26 543.1,-272.46"/>
<polygon fill="black" stroke="black" points="546.03,-270.54 537.77,-263.91 540.09,-274.25 546.03,-270.54"/>
<text text-anchor="middle" x="627.1" y="-286.4" font-family="Times,serif" font-size="14.00">unaligned_ribocode</text>
</g>
<!-- p19 -->
<g id="node22" class="node">
<title>p19</title>
<ellipse fill="black" stroke="black" cx="774.6" cy="-246.6" rx="1.8" ry="1.8"/>
</g>
<!-- p18&#45;&gt;p19 -->
<g id="edge20" class="edge">
<title>p18&#45;&gt;p19</title>
<path fill="none" stroke="black" d="M635.11,-319.09C655.91,-313.32 679.64,-305.97 700.6,-297.6 730.32,-285.73 741.35,-286.59 764.6,-264.6 766.62,-262.69 768.37,-260.28 769.81,-257.88"/>
<polygon fill="black" stroke="black" points="773.06,-259.18 774.22,-248.65 766.75,-256.16 773.06,-259.18"/>
<text text-anchor="middle" x="800.1" y="-286.4" font-family="Times,serif" font-size="14.00">aligned_ribocode</text>
</g>
<!-- p9 -->
<g id="node12" class="node">
<title>p9</title>
<ellipse fill="black" stroke="black" cx="3.6" cy="-420.6" rx="3.6" ry="3.6"/>
</g>
<!-- p11 -->
<g id="node13" class="node">
<title>p11</title>
<ellipse fill="none" stroke="black" cx="83.6" cy="-333.6" rx="64.99" ry="18"/>
<text text-anchor="middle" x="83.6" y="-329.9" font-family="Times,serif" font-size="14.00">Index_Price</text>
</g>
<!-- p9&#45;&gt;p11 -->
<g id="edge11" class="edge">
<title>p9&#45;&gt;p11</title>
<path fill="none" stroke="black" d="M3.96,-417C5.18,-409.04 9.82,-384.57 22.6,-369.6 27.56,-363.79 33.74,-358.73 40.24,-354.4"/>
<polygon fill="black" stroke="black" points="42.5,-357.12 49.23,-348.94 38.87,-351.14 42.5,-357.12"/>
<text text-anchor="middle" x="51.1" y="-373.4" font-family="Times,serif" font-size="14.00">genome</text>
</g>
<!-- p11&#45;&gt;p15 -->
<g id="edge13" class="edge">
<title>p11&#45;&gt;p15</title>
<path fill="none" stroke="black" d="M96.05,-315.73C104.1,-305.48 115.17,-292.49 126.6,-282.6 133.69,-276.46 141.95,-270.63 149.88,-265.56"/>
<polygon fill="black" stroke="black" points="151.94,-268.4 158.61,-260.16 148.26,-262.44 151.94,-268.4"/>
<text text-anchor="middle" x="161.6" y="-286.4" font-family="Times,serif" font-size="14.00">oml_price</text>
</g>
<!-- p10 -->
<g id="node14" class="node">
<title>p10</title>
<ellipse fill="black" stroke="black" cx="83.6" cy="-420.6" rx="3.6" ry="3.6"/>
</g>
<!-- p10&#45;&gt;p11 -->
<g id="edge12" class="edge">
<title>p10&#45;&gt;p11</title>
<path fill="none" stroke="black" d="M83.6,-416.77C83.6,-408.28 83.6,-382.35 83.6,-361.87"/>
<polygon fill="black" stroke="black" points="87.1,-361.77 83.6,-351.77 80.1,-361.77 87.1,-361.77"/>
<text text-anchor="middle" x="122.1" y="-373.4" font-family="Times,serif" font-size="14.00">annotation</text>
</g>
<!-- p31 -->
<g id="node18" class="node">
<title>p31</title>
<ellipse fill="none" stroke="black" cx="181.6" cy="-159.6" rx="102.88" ry="18"/>
<text text-anchor="middle" x="181.6" y="-155.9" font-family="Times,serif" font-size="14.00">getTranscriptsPrice</text>
</g>
<!-- p15&#45;&gt;p31 -->
<g id="edge17" class="edge">
<title>p15&#45;&gt;p31</title>
<path fill="none" stroke="black" d="M181.6,-228.4C181.6,-216.76 181.6,-201.15 181.6,-187.84"/>
<polygon fill="black" stroke="black" points="185.1,-187.78 181.6,-177.78 178.1,-187.78 185.1,-187.78"/>
<text text-anchor="middle" x="228.1" y="-199.4" font-family="Times,serif" font-size="14.00">price_results</text>
</g>
<!-- p32 -->
<g id="node33" class="node">
<title>p32</title>
<ellipse fill="black" stroke="black" cx="181.6" cy="-72.6" rx="1.8" ry="1.8"/>
</g>
<!-- p31&#45;&gt;p32 -->
<g id="edge30" class="edge">
<title>p31&#45;&gt;p32</title>
<path fill="none" stroke="black" d="M181.6,-141.4C181.6,-124.52 181.6,-99.26 181.6,-84.82"/>
<polygon fill="black" stroke="black" points="185.1,-84.68 181.6,-74.68 178.1,-84.68 185.1,-84.68"/>
<text text-anchor="middle" x="213.1" y="-112.4" font-family="Times,serif" font-size="14.00">priceOut</text>
</g>
<!-- p16 -->
<g id="node19" class="node">
<title>p16</title>
<ellipse fill="black" stroke="black" cx="615.6" cy="-667.2" rx="3.6" ry="3.6"/>
</g>
<!-- p17 -->
<g id="node20" class="node">
<title>p17</title>
<ellipse fill="none" stroke="black" cx="615.6" cy="-594.6" rx="85.29" ry="18"/>
<text text-anchor="middle" x="615.6" y="-590.9" font-family="Times,serif" font-size="14.00">Index_RiboCode</text>
</g>
<!-- p16&#45;&gt;p17 -->
<g id="edge18" class="edge">
<title>p16&#45;&gt;p17</title>
<path fill="none" stroke="black" d="M615.6,-663.52C615.6,-656.85 615.6,-638.9 615.6,-623.13"/>
<polygon fill="black" stroke="black" points="619.1,-622.73 615.6,-612.73 612.1,-622.73 619.1,-622.73"/>
<text text-anchor="middle" x="635.6" y="-634.4" font-family="Times,serif" font-size="14.00">rRNA</text>
</g>
<!-- p25 -->
<g id="node26" class="node">
<title>p25</title>
<ellipse fill="black" stroke="black" cx="460.6" cy="-159.6" rx="1.8" ry="1.8"/>
</g>
<!-- p23&#45;&gt;p25 -->
<g id="edge23" class="edge">
<title>p23&#45;&gt;p25</title>
<path fill="none" stroke="black" d="M496.7,-237C483.53,-231.66 469.42,-223.3 461.6,-210.6 454.26,-198.67 455.77,-181.92 457.9,-171.17"/>
<polygon fill="black" stroke="black" points="461.31,-171.93 460.35,-161.38 454.52,-170.23 461.31,-171.93"/>
<text text-anchor="middle" x="509.6" y="-199.4" font-family="Times,serif" font-size="14.00">STAR_results</text>
</g>
<!-- p28 -->
<g id="node27" class="node">
<title>p28</title>
<ellipse fill="none" stroke="black" cx="707.6" cy="-159.6" rx="63.89" ry="18"/>
<text text-anchor="middle" x="707.6" y="-155.9" font-family="Times,serif" font-size="14.00">Transcripts</text>
</g>
<!-- p23&#45;&gt;p28 -->
<g id="edge24" class="edge">
<title>p23&#45;&gt;p28</title>
<path fill="none" stroke="black" d="M545.32,-230.82C559.13,-219.89 579.17,-205.28 598.6,-195.6 615.11,-187.38 633.97,-180.52 651.31,-175.11"/>
<polygon fill="black" stroke="black" points="652.75,-178.33 661.31,-172.1 650.73,-171.63 652.75,-178.33"/>
<text text-anchor="middle" x="651.1" y="-199.4" font-family="Times,serif" font-size="14.00">STAR_results2</text>
</g>
<!-- p24 -->
<g id="node28" class="node">
<title>p24</title>
<ellipse fill="black" stroke="black" cx="332.6" cy="-159.6" rx="1.8" ry="1.8"/>
</g>
<!-- p23&#45;&gt;p24 -->
<g id="edge25" class="edge">
<title>p23&#45;&gt;p24</title>
<path fill="none" stroke="black" d="M499.58,-235.03C492.48,-232.65 484.83,-230.32 477.6,-228.6 449.44,-221.91 370.74,-229.24 348.6,-210.6 337.23,-201.02 333.85,-183.35 332.9,-171.79"/>
<polygon fill="black" stroke="black" points="336.39,-171.36 332.57,-161.48 329.39,-171.58 336.39,-171.36"/>
<text text-anchor="middle" x="401.1" y="-199.4" font-family="Times,serif" font-size="14.00">STAR_results3</text>
</g>
<!-- p20 -->
<g id="node23" class="node">
<title>p20</title>
<ellipse fill="black" stroke="black" cx="776.6" cy="-667.2" rx="3.6" ry="3.6"/>
</g>
<!-- p22 -->
<g id="node24" class="node">
<title>p22</title>
<ellipse fill="none" stroke="black" cx="805.6" cy="-594.6" rx="78.79" ry="18"/>
<text text-anchor="middle" x="805.6" y="-590.9" font-family="Times,serif" font-size="14.00">Genome_STAR</text>
</g>
<!-- p20&#45;&gt;p22 -->
<g id="edge21" class="edge">
<title>p20&#45;&gt;p22</title>
<path fill="none" stroke="black" d="M776.11,-663.5C775.13,-657.41 773.34,-642.21 777.6,-630.6 778.88,-627.11 780.66,-623.7 782.71,-620.46"/>
<polygon fill="black" stroke="black" points="785.54,-622.52 788.59,-612.37 779.88,-618.4 785.54,-622.52"/>
<text text-anchor="middle" x="795.1" y="-634.4" font-family="Times,serif" font-size="14.00">geno</text>
</g>
<!-- p21 -->
<g id="node25" class="node">
<title>p21</title>
<ellipse fill="black" stroke="black" cx="834.6" cy="-667.2" rx="3.6" ry="3.6"/>
</g>
<!-- p21&#45;&gt;p22 -->
<g id="edge22" class="edge">
<title>p21&#45;&gt;p22</title>
<path fill="none" stroke="black" d="M833.5,-663.52C830.71,-656.72 823.1,-638.21 816.54,-622.22"/>
<polygon fill="black" stroke="black" points="819.67,-620.65 812.64,-612.73 813.2,-623.31 819.67,-620.65"/>
<text text-anchor="middle" x="847.1" y="-634.4" font-family="Times,serif" font-size="14.00">annot</text>
</g>
<!-- p29 -->
<g id="node31" class="node">
<title>p29</title>
<ellipse fill="none" stroke="black" cx="707.6" cy="-72.6" rx="123.48" ry="18"/>
<text text-anchor="middle" x="707.6" y="-68.9" font-family="Times,serif" font-size="14.00">getTranscriptsRiboCode</text>
</g>
<!-- p28&#45;&gt;p29 -->
<g id="edge28" class="edge">
<title>p28&#45;&gt;p29</title>
<path fill="none" stroke="black" d="M707.6,-141.4C707.6,-129.76 707.6,-114.15 707.6,-100.84"/>
<polygon fill="black" stroke="black" points="711.1,-100.78 707.6,-90.78 704.1,-100.78 711.1,-100.78"/>
<text text-anchor="middle" x="738.6" y="-112.4" font-family="Times,serif" font-size="14.00">ribocode</text>
</g>
<!-- p26 -->
<g id="node29" class="node">
<title>p26</title>
<ellipse fill="black" stroke="black" cx="707.6" cy="-246.6" rx="3.6" ry="3.6"/>
</g>
<!-- p26&#45;&gt;p28 -->
<g id="edge26" class="edge">
<title>p26&#45;&gt;p28</title>
<path fill="none" stroke="black" d="M707.6,-242.77C707.6,-234.28 707.6,-208.35 707.6,-187.87"/>
<polygon fill="black" stroke="black" points="711.1,-187.77 707.6,-177.77 704.1,-187.77 711.1,-187.77"/>
<text text-anchor="middle" x="718.1" y="-199.4" font-family="Times,serif" font-size="14.00">gtf</text>
</g>
<!-- p27 -->
<g id="node30" class="node">
<title>p27</title>
<ellipse fill="black" stroke="black" cx="751.6" cy="-246.6" rx="3.6" ry="3.6"/>
</g>
<!-- p27&#45;&gt;p28 -->
<g id="edge27" class="edge">
<title>p27&#45;&gt;p28</title>
<path fill="none" stroke="black" d="M750.54,-242.82C747.59,-235.14 738.85,-213.03 729.6,-195.6 727.93,-192.46 726.09,-189.23 724.2,-186.05"/>
<polygon fill="black" stroke="black" points="727.09,-184.06 718.85,-177.39 721.13,-187.74 727.09,-184.06"/>
<text text-anchor="middle" x="772.1" y="-199.4" font-family="Times,serif" font-size="14.00">reference</text>
</g>
<!-- p30 -->
<g id="node32" class="node">
<title>p30</title>
<ellipse fill="black" stroke="black" cx="707.6" cy="-1.8" rx="1.8" ry="1.8"/>
</g>
<!-- p29&#45;&gt;p30 -->
<g id="edge29" class="edge">
<title>p29&#45;&gt;p30</title>
<path fill="none" stroke="black" d="M707.6,-54.59C707.6,-42.06 707.6,-25.34 707.6,-14.34"/>
<polygon fill="black" stroke="black" points="711.1,-14.19 707.6,-4.19 704.1,-14.19 711.1,-14.19"/>
<text text-anchor="middle" x="751.6" y="-25.4" font-family="Times,serif" font-size="14.00">ribocodeOut</text>
</g>
<!-- p33 -->
<g id="node34" class="node">
<title>p33</title>
<ellipse fill="black" stroke="black" cx="1033.6" cy="-667.2" rx="3.6" ry="3.6"/>
<text text-anchor="middle" x="950" y="-674.6" font-family="Times,serif" font-size="14.00">Channel.fromFilePairs</text>
</g>
<!-- p34 -->
<g id="node35" class="node">
<title>p34</title>
<ellipse fill="none" stroke="black" cx="1033.6" cy="-594.6" rx="3.5" ry="3.5"/>
<text text-anchor="middle" x="1001.1" y="-601.9" font-family="Times,serif" font-size="14.00">ifEmpty</text>
</g>
<!-- p33&#45;&gt;p34 -->
<g id="edge31" class="edge">
<title>p33&#45;&gt;p34</title>
<path fill="none" stroke="black" d="M1033.6,-663.52C1033.6,-654.61 1033.6,-625.58 1033.6,-608.49"/>
<polygon fill="black" stroke="black" points="1037.1,-608.28 1033.6,-598.28 1030.1,-608.28 1037.1,-608.28"/>
</g>
<!-- p35 -->
<g id="node36" class="node">
<title>p35</title>
<ellipse fill="none" stroke="black" cx="1033.6" cy="-507.6" rx="98.58" ry="18"/>
<text text-anchor="middle" x="1033.6" y="-503.9" font-family="Times,serif" font-size="14.00">getTranscriptFasta</text>
</g>
<!-- p34&#45;&gt;p35 -->
<g id="edge32" class="edge">
<title>p34&#45;&gt;p35</title>
<path fill="none" stroke="black" d="M1033.6,-590.77C1033.6,-582.28 1033.6,-556.35 1033.6,-535.87"/>
<polygon fill="black" stroke="black" points="1037.1,-535.77 1033.6,-525.77 1030.1,-535.77 1037.1,-535.77"/>
<text text-anchor="middle" x="1073.1" y="-547.4" font-family="Times,serif" font-size="14.00">fastqcFiles</text>
</g>
<!-- p38 -->
<g id="node37" class="node">
<title>p38</title>
<ellipse fill="none" stroke="black" cx="990.6" cy="-420.6" rx="53.89" ry="18"/>
<text text-anchor="middle" x="990.6" y="-416.9" font-family="Times,serif" font-size="14.00">DeepCPP</text>
</g>
<!-- p35&#45;&gt;p38 -->
<g id="edge33" class="edge">
<title>p35&#45;&gt;p38</title>
<path fill="none" stroke="black" d="M1024.9,-489.4C1018.86,-477.45 1010.69,-461.32 1003.85,-447.78"/>
<polygon fill="black" stroke="black" points="1006.78,-445.83 999.14,-438.49 1000.53,-448.99 1006.78,-445.83"/>
<text text-anchor="middle" x="1038.1" y="-460.4" font-family="Times,serif" font-size="14.00">fasta1</text>
</g>
<!-- p42 -->
<g id="node38" class="node">
<title>p42</title>
<ellipse fill="none" stroke="black" cx="1118.6" cy="-420.6" rx="48.99" ry="18"/>
<text text-anchor="middle" x="1118.6" y="-416.9" font-family="Times,serif" font-size="14.00">Mipepid</text>
</g>
<!-- p35&#45;&gt;p42 -->
<g id="edge34" class="edge">
<title>p35&#45;&gt;p42</title>
<path fill="none" stroke="black" d="M1050.39,-489.81C1063.13,-477.07 1080.8,-459.4 1094.96,-445.24"/>
<polygon fill="black" stroke="black" points="1097.82,-447.33 1102.42,-437.78 1092.87,-442.38 1097.82,-447.33"/>
<text text-anchor="middle" x="1104.1" y="-460.4" font-family="Times,serif" font-size="14.00">fasta2</text>
</g>
<!-- p39 -->
<g id="node41" class="node">
<title>p39</title>
<ellipse fill="black" stroke="black" cx="990.6" cy="-333.6" rx="1.8" ry="1.8"/>
</g>
<!-- p38&#45;&gt;p39 -->
<g id="edge37" class="edge">
<title>p38&#45;&gt;p39</title>
<path fill="none" stroke="black" d="M990.6,-402.4C990.6,-385.52 990.6,-360.26 990.6,-345.82"/>
<polygon fill="black" stroke="black" points="994.1,-345.68 990.6,-335.68 987.1,-345.68 994.1,-345.68"/>
<text text-anchor="middle" x="1021.1" y="-373.4" font-family="Times,serif" font-size="14.00">deepcpp</text>
</g>
<!-- p43 -->
<g id="node44" class="node">
<title>p43</title>
<ellipse fill="black" stroke="black" cx="1118.6" cy="-333.6" rx="1.8" ry="1.8"/>
</g>
<!-- p42&#45;&gt;p43 -->
<g id="edge40" class="edge">
<title>p42&#45;&gt;p43</title>
<path fill="none" stroke="black" d="M1118.6,-402.4C1118.6,-385.52 1118.6,-360.26 1118.6,-345.82"/>
<polygon fill="black" stroke="black" points="1122.1,-345.68 1118.6,-335.68 1115.1,-345.68 1122.1,-345.68"/>
<text text-anchor="middle" x="1147.6" y="-373.4" font-family="Times,serif" font-size="14.00">mipepid</text>
</g>
<!-- p36 -->
<g id="node39" class="node">
<title>p36</title>
<ellipse fill="black" stroke="black" cx="909.6" cy="-594.6" rx="3.6" ry="3.6"/>
<text text-anchor="middle" x="986" y="-579.8" font-family="Times,serif" font-size="14.00">Channel.fromFilePairs</text>
</g>
<!-- p37 -->
<g id="node40" class="node">
<title>p37</title>
<ellipse fill="none" stroke="black" cx="909.6" cy="-507.6" rx="3.5" ry="3.5"/>
<text text-anchor="middle" x="877.1" y="-514.9" font-family="Times,serif" font-size="14.00">ifEmpty</text>
</g>
<!-- p36&#45;&gt;p37 -->
<g id="edge35" class="edge">
<title>p36&#45;&gt;p37</title>
<path fill="none" stroke="black" d="M909.6,-590.77C909.6,-580.09 909.6,-541.79 909.6,-521.47"/>
<polygon fill="black" stroke="black" points="913.1,-521.18 909.6,-511.18 906.1,-521.18 913.1,-521.18"/>
</g>
<!-- p37&#45;&gt;p38 -->
<g id="edge36" class="edge">
<title>p37&#45;&gt;p38</title>
<path fill="none" stroke="black" d="M909.24,-504C908.28,-496.02 906.45,-471.54 917.6,-456.6 923.72,-448.41 932.25,-442.04 941.34,-437.13"/>
<polygon fill="black" stroke="black" points="943.05,-440.19 950.54,-432.69 940.01,-433.89 943.05,-440.19"/>
<text text-anchor="middle" x="961.6" y="-460.4" font-family="Times,serif" font-size="14.00">fastqcFiles2</text>
</g>
<!-- p40 -->
<g id="node42" class="node">
<title>p40</title>
<ellipse fill="black" stroke="black" cx="1156.6" cy="-594.6" rx="3.6" ry="3.6"/>
<text text-anchor="middle" x="1233" y="-602" font-family="Times,serif" font-size="14.00">Channel.fromFilePairs</text>
</g>
<!-- p41 -->
<g id="node43" class="node">
<title>p41</title>
<ellipse fill="none" stroke="black" cx="1156.6" cy="-507.6" rx="3.5" ry="3.5"/>
<text text-anchor="middle" x="1182.1" y="-514.9" font-family="Times,serif" font-size="14.00">ifEmpty</text>
</g>
<!-- p40&#45;&gt;p41 -->
<g id="edge38" class="edge">
<title>p40&#45;&gt;p41</title>
<path fill="none" stroke="black" d="M1156.6,-590.77C1156.6,-580.09 1156.6,-541.79 1156.6,-521.47"/>
<polygon fill="black" stroke="black" points="1160.1,-521.18 1156.6,-511.18 1153.1,-521.18 1160.1,-521.18"/>
</g>
<!-- p41&#45;&gt;p42 -->
<g id="edge39" class="edge">
<title>p41&#45;&gt;p42</title>
<path fill="none" stroke="black" d="M1155.42,-503.88C1152.15,-496.36 1142.67,-474.6 1134.6,-456.6 1133.33,-453.77 1131.99,-450.81 1130.65,-447.86"/>
<polygon fill="black" stroke="black" points="1133.8,-446.31 1126.46,-438.67 1127.43,-449.22 1133.8,-446.31"/>
<text text-anchor="middle" x="1185.6" y="-460.4" font-family="Times,serif" font-size="14.00">fastqcFiles3</text>
</g>
</g>
</svg>
